# xmcd CD database file
#
# Track frame offsets:
#	150
#	12939
#	26986
#	41122
#	56849
#	78353
#	96206
#	111689
#	126366
#	142616
#	154503
#	167003
#	184194
#	198852
#	210945
#	226850
#	244200
#	256623
#
# Disc length: 3587 seconds
#
# Revision: 1
# Processed by: cddbd v1.5.1PL0 Copyright (c) Steve Scherf et al.
# Submitted via: CDex 1.51
#
DISCID=ed0e0112
DTITLE=Shanley Del - What's A Heartache For?
DYEAR=1999
DGENRE=Country
TTITLE0=I Don't Want To Talk About Love
TTITLE1=Human Weakness
TTITLE2=The Hand I Hold
TTITLE3=What's A Heartache For?
TTITLE4=Heaven On Earth
TTITLE5=Reason Enough
TTITLE6=Wild About You
TTITLE7=The Laughing Years
TTITLE8=How Long (Until A Heartache Goes Away)
TTITLE9=I Know Losin' By Heart
TTITLE10=Little Ray Of Hope
TTITLE11=Full Time Job
TTITLE12=Rear View Mirrors
TTITLE13=Funnel Of Love (Bonus)
TTITLE14=Somewhere Out There (Bonus)
TTITLE15=Red Roses (Bonus)
TTITLE16=Don't Walk Away (Bonus)
TTITLE17=Never A Goodbye (Bonus)
EXTD=YEAR: 1999
EXTT0=
EXTT1=
EXTT2=
EXTT3=
EXTT4=
EXTT5=
EXTT6=
EXTT7=
EXTT8=
EXTT9=
EXTT10=
EXTT11=
EXTT12=
EXTT13=
EXTT14=
EXTT15=
EXTT16=
EXTT17=
PLAYORDER=
